<?xml version="1.0" standalone="no"?>
<!DOCTYPE svg PUBLIC "-//W3C//DTD SVG 20010904//EN"
 "http://www.w3.org/TR/2001/REC-SVG-20010904/DTD/svg10.dtd">
<svg version="1.0" xmlns="http://www.w3.org/2000/svg"
 width="262.000000pt" height="145.000000pt" viewBox="0 0 262.000000 145.000000"
 preserveAspectRatio="xMidYMid meet">
<metadata>
Created by potrace 1.16, written by Peter Selinger 2001-2019
</metadata>
<g transform="translate(0.000000,145.000000) scale(0.100000,-0.100000)"
fill="#000000" stroke="none">
<path d="M332 1183 c3 -24 9 -29 47 -35 53 -9 88 -39 101 -87 13 -47 13 -563
0 -631 -13 -68 -30 -87 -97 -106 -45 -13 -53 -19 -53 -40 l0 -24 200 0 200 0
0 25 c0 14 -6 27 -12 29 -88 25 -111 40 -129 82 -18 39 -19 66 -17 369 l3 327
70 -189 c38 -103 106 -287 151 -408 l81 -220 40 -3 40 -3 58 148 c32 81 104
265 161 408 l103 260 3 -265 c5 -481 7 -448 -25 -476 -16 -13 -41 -24 -57 -24
-44 0 -60 -10 -60 -36 l0 -24 256 0 255 0 -3 27 c-2 19 -10 29 -23 31 -49 7
-67 14 -85 32 -19 19 -20 35 -20 384 0 413 -3 400 80 414 39 7 45 11 48 35 l3
27 -209 0 -210 0 -11 -47 c-15 -61 -214 -579 -218 -567 -2 5 -54 144 -117 309
l-113 300 -222 3 -222 2 3 -27z"/>
<path d="M2118 1033 c-89 -3 -98 -6 -98 -23 0 -14 11 -22 40 -30 59 -16 70
-39 70 -143 0 -88 0 -89 -22 -83 -47 14 -144 18 -184 7 -46 -12 -127 -78 -150
-122 -35 -69 -35 -199 1 -268 20 -40 75 -91 115 -109 69 -29 166 -14 223 36
16 14 17 13 17 -11 0 -26 2 -27 63 -27 34 0 92 3 130 7 56 5 67 9 67 24 0 14
-7 19 -27 19 -60 0 -58 -12 -63 372 l-5 353 -40 1 c-22 0 -84 -1 -137 -3z
m-14 -344 c25 -30 26 -34 26 -177 0 -81 -4 -152 -8 -158 -21 -31 -94 -44 -133
-24 -10 6 -29 30 -41 53 -27 54 -29 190 -3 255 34 84 110 109 159 51z"/>
</g>
</svg>
